<?xml version="1.0" encoding="utf-8"?>
<!-- Generator: Adobe Illustrator 21.1.0, SVG Export Plug-In . SVG Version: 6.00 Build 0)  -->
<svg version="1.1" id="Layer_1" xmlns="http://www.w3.org/2000/svg" xmlns:xlink="http://www.w3.org/1999/xlink" x="0px" y="0px"
	 width="181.5px" height="83.9px" viewBox="0 0 181.5 83.9" style="enable-background:new 0 0 181.5 83.9;" xml:space="preserve">
<style type="text/css">
	.st0{fill:url(#SVGID_1_);}
	.st1{fill:none;stroke:#231F20;stroke-width:2;stroke-miterlimit:10;}
	.st2{fill:url(#SVGID_2_);stroke:#000000;stroke-width:2.0013;stroke-miterlimit:10;}
	.st3{fill:none;stroke:#231F20;stroke-width:4;stroke-miterlimit:10;}
</style>
<title>coin</title>
<linearGradient id="SVGID_1_" gradientUnits="userSpaceOnUse" x1="0.99" y1="60.1783" x2="180.4563" y2="60.1783">
	<stop  offset="0" style="stop-color:#ABAAB0"/>
	<stop  offset="0.52" style="stop-color:#F0F0EE"/>
	<stop  offset="1" style="stop-color:#ABAAB0"/>
</linearGradient>
<path class="st0" d="M1.1,37.5c0,0,12.8,27,92.7,26.7c0,0,65.5,1.1,85.7-26.7c0,0,1.6,6.3,0.7,17.6c0,0-8.4,28.3-93.6,27.8
	c0,0-74.7-0.8-85.6-28L1.1,37.5z"/>
<path class="st1" d="M1.1,33.6v18.7c0,16.9,40.2,30.7,89.7,30.7s89.7-13.8,89.7-30.7V31.7"/>
<path class="st1" d="M90.8,2.9"/>
<radialGradient id="SVGID_2_" cx="90.77" cy="32.61" r="67.2973" gradientUnits="userSpaceOnUse">
	<stop  offset="0.145" style="stop-color:#F5F9F7"/>
	<stop  offset="0.5375" style="stop-color:#E4E1E4"/>
	<stop  offset="0.8775" style="stop-color:#ABAAB0"/>
	<stop  offset="1" style="stop-color:#A09FA5"/>
</radialGradient>
<ellipse class="st2" cx="90.8" cy="32.6" rx="89.8" ry="31.6"/>
<line class="st1" x1="4.2" y1="40.8" x2="4.2" y2="60.1"/>
<line class="st1" x1="9.2" y1="46.3" x2="9.2" y2="65.1"/>
<line class="st1" x1="14.6" y1="49.8" x2="14.6" y2="68.4"/>
<line class="st1" x1="20.4" y1="52.5" x2="20.4" y2="71.5"/>
<line class="st1" x1="26.2" y1="54.8" x2="26.2" y2="73.4"/>
<line class="st1" x1="32.6" y1="56.9" x2="32.6" y2="75.1"/>
<line class="st1" x1="39.3" y1="58.7" x2="39.3" y2="77.3"/>
<line class="st1" x1="45.2" y1="60" x2="45.2" y2="78.8"/>
<line class="st1" x1="51.4" y1="60.5" x2="51.4" y2="79.1"/>
<line class="st1" x1="58" y1="62" x2="58" y2="80.7"/>
<line class="st1" x1="64.7" y1="62.9" x2="64.7" y2="81.6"/>
<line class="st1" x1="71.6" y1="62.9" x2="71.6" y2="82.2"/>
<line class="st1" x1="79.1" y1="64" x2="79.1" y2="82.2"/>
<line class="st1" x1="86.6" y1="64.2" x2="86.6" y2="82.9"/>
<line class="st1" x1="93.8" y1="64.2" x2="93.8" y2="82.9"/>
<line class="st1" x1="101.3" y1="64" x2="101.3" y2="82.2"/>
<line class="st1" x1="108.3" y1="63.7" x2="108.3" y2="82.2"/>
<line class="st1" x1="114.7" y1="62.9" x2="114.7" y2="81.6"/>
<line class="st1" x1="121.2" y1="62.4" x2="121.2" y2="81.6"/>
<line class="st1" x1="127.9" y1="61.5" x2="127.9" y2="80.2"/>
<line class="st1" x1="134.6" y1="60" x2="134.6" y2="79.1"/>
<line class="st1" x1="140.5" y1="59.1" x2="140.5" y2="77.9"/>
<line class="st1" x1="145.9" y1="57.8" x2="145.9" y2="76.4"/>
<line class="st1" x1="152.2" y1="55.9" x2="152.2" y2="74.7"/>
<line class="st1" x1="157.5" y1="54.1" x2="157.5" y2="72"/>
<line class="st1" x1="158.8" y1="72.3" x2="157.5" y2="72.3"/>
<line class="st1" x1="163" y1="51.8" x2="163" y2="70.8"/>
<line class="st1" x1="167.8" y1="48.9" x2="167.8" y2="67.6"/>
<line class="st1" x1="172" y1="46.2" x2="172" y2="65.3"/>
<line class="st1" x1="176.3" y1="42.6" x2="176.3" y2="61.5"/>
<path class="st3" d="M87,51.6c7.2,3.3,15.4,4,23.2,3.5c6.3-0.4,15.3-2,19.2-8.3c3.4-5.5,0.8-11-3.9-13.8c-9.7-5.7-21.7-3.1-32.3-3.6
	C85.6,29,77.9,29,70.3,29.4c-4.7,0.2-11.6,1.7-15.4-2.3c-7.5-7.9,13.5-13,17.3-14c7.6-2,15.9-2.4,23.7-2.8"/>
<line class="st3" x1="62.5" y1="9.2" x2="129.9" y2="55.1"/>
<image style="overflow:visible;" width="450" height="450" xlink:href="2F0066C5.jpg"  transform="matrix(0.2999 0 0 0.2999 218.02 -14.9167)">
</image>
</svg>
