<?xml version="1.0" encoding="utf-8"?>
<!-- Generator: Adobe Illustrator 16.0.0, SVG Export Plug-In . SVG Version: 6.00 Build 0)  -->
<!DOCTYPE svg PUBLIC "-//W3C//DTD SVG 1.1//EN" "http://www.w3.org/Graphics/SVG/1.1/DTD/svg11.dtd">
<svg version="1.1" id="Layer_1" xmlns="http://www.w3.org/2000/svg" xmlns:xlink="http://www.w3.org/1999/xlink" x="0px" y="0px"
	 width="182.871px" height="80.5px" viewBox="0 0 182.871 80.5" enable-background="new 0 0 182.871 80.5" xml:space="preserve">
<g>
	<path fill="none" stroke="#231F20" stroke-width="2" stroke-miterlimit="10" d="M182.134,29.947
		c-2.869-15.534-42.054-27.841-89.98-27.841C42.363,2.105,2,15.389,2,31.775v18.055C2,66.217,42.363,79.5,92.154,79.5
		c49.792,0,90.156-13.283,90.156-29.669V29.945L182.134,29.947z"/>
	<ellipse fill="none" stroke="#231F20" stroke-width="2" stroke-miterlimit="10" cx="92.715" cy="31.775" rx="90.156" ry="29.668"/>
	<line fill="none" stroke="#231F20" stroke-width="2" stroke-miterlimit="10" x1="5.116" y1="39.528" x2="5.116" y2="57.327"/>
	<line fill="none" stroke="#231F20" stroke-width="2" stroke-miterlimit="10" x1="10.169" y1="44.13" x2="10.169" y2="61.444"/>
	<line fill="none" stroke="#231F20" stroke-width="2" stroke-miterlimit="10" x1="15.614" y1="47.456" x2="15.614" y2="65.523"/>
	<line fill="none" stroke="#231F20" stroke-width="2" stroke-miterlimit="10" x1="21.36" y1="50.146" x2="21.36" y2="68.449"/>
	<line fill="none" stroke="#231F20" stroke-width="2" stroke-miterlimit="10" x1="27.24" y1="52.362" x2="27.24" y2="70.292"/>
	<line fill="none" stroke="#231F20" stroke-width="2" stroke-miterlimit="10" x1="33.69" y1="54.358" x2="33.69" y2="71.964"/>
	<line fill="none" stroke="#231F20" stroke-width="2" stroke-miterlimit="10" x1="40.412" y1="56.073" x2="40.412" y2="74.119"/>
	<line fill="none" stroke="#231F20" stroke-width="2" stroke-miterlimit="10" x1="46.312" y1="57.327" x2="46.312" y2="75.505"/>
	<line fill="none" stroke="#231F20" stroke-width="2" stroke-miterlimit="10" x1="52.582" y1="57.872" x2="52.582" y2="75.796"/>
	<line fill="none" stroke="#231F20" stroke-width="2" stroke-miterlimit="10" x1="59.212" y1="59.298" x2="59.212" y2="77.417"/>
	<line fill="none" stroke="#231F20" stroke-width="2" stroke-miterlimit="10" x1="65.884" y1="60.164" x2="65.884" y2="78.243"/>
	<line fill="none" stroke="#231F20" stroke-width="2" stroke-miterlimit="10" x1="72.846" y1="60.164" x2="72.846" y2="78.78"/>
	<line fill="none" stroke="#231F20" stroke-width="2" stroke-miterlimit="10" x1="80.355" y1="61.192" x2="80.355" y2="78.78"/>
	<line fill="none" stroke="#231F20" stroke-width="2" stroke-miterlimit="10" x1="87.89" y1="61.444" x2="87.89" y2="79.5"/>
	<line fill="none" stroke="#231F20" stroke-width="2" stroke-miterlimit="10" x1="95.154" y1="61.433" x2="95.154" y2="79.5"/>
	<line fill="none" stroke="#231F20" stroke-width="2" stroke-miterlimit="10" x1="102.675" y1="61.192" x2="102.675" y2="78.78"/>
	<line fill="none" stroke="#231F20" stroke-width="2" stroke-miterlimit="10" x1="109.697" y1="60.93" x2="109.697" y2="78.78"/>
	<line fill="none" stroke="#231F20" stroke-width="2" stroke-miterlimit="10" x1="116.164" y1="60.164" x2="116.164" y2="78.243"/>
	<line fill="none" stroke="#231F20" stroke-width="2" stroke-miterlimit="10" x1="122.666" y1="59.701" x2="122.666" y2="78.243"/>
	<line fill="none" stroke="#231F20" stroke-width="2" stroke-miterlimit="10" x1="129.44" y1="58.795" x2="129.44" y2="76.896"/>
	<line fill="none" stroke="#231F20" stroke-width="2" stroke-miterlimit="10" x1="136.117" y1="57.327" x2="136.117" y2="75.796"/>
	<line fill="none" stroke="#231F20" stroke-width="2" stroke-miterlimit="10" x1="142.042" y1="56.49" x2="142.042" y2="74.634"/>
	<line fill="none" stroke="#231F20" stroke-width="2" stroke-miterlimit="10" x1="147.542" y1="55.186" x2="147.542" y2="73.183"/>
	<line fill="none" stroke="#231F20" stroke-width="2" stroke-miterlimit="10" x1="153.802" y1="53.421" x2="153.802" y2="71.533"/>
	<line fill="none" stroke="#231F20" stroke-width="2" stroke-miterlimit="10" x1="159.125" y1="51.637" x2="159.125" y2="68.972"/>
	<line fill="none" stroke="#231F20" stroke-width="2" stroke-miterlimit="10" x1="160.439" y1="69.203" x2="159.125" y2="69.203"/>
	<line fill="none" stroke="#231F20" stroke-width="2" stroke-miterlimit="10" x1="164.716" y1="49.383" x2="164.716" y2="67.846"/>
	<line fill="none" stroke="#231F20" stroke-width="2" stroke-miterlimit="10" x1="169.474" y1="46.645" x2="169.474" y2="64.712"/>
	<line fill="none" stroke="#231F20" stroke-width="2" stroke-miterlimit="10" x1="173.744" y1="44.939" x2="173.744" y2="62.477"/>
	<line fill="none" stroke="#231F20" stroke-width="2" stroke-miterlimit="10" x1="178.048" y1="41.574" x2="178.048" y2="58.795"/>
	<path fill="none" stroke="#231F20" stroke-width="4" stroke-miterlimit="10" d="M88.344,49.205
		c7.273,3.146,15.529,3.869,23.325,3.349c6.381-0.426,15.381-1.977,19.254-8.001c3.43-5.334,0.812-10.663-3.945-13.325
		c-9.794-5.479-21.838-2.971-32.424-3.468c-7.616-0.358-15.352-0.436-22.971-0.061c-4.757,0.234-11.633,1.664-15.462-2.204
		c-7.561-7.639,13.552-12.573,17.399-13.54c7.613-1.914,15.979-2.351,23.772-2.691"/>
	<line fill="none" stroke="#231F20" stroke-width="4" stroke-miterlimit="10" x1="63.692" y1="8.252" x2="131.44" y2="52.592"/>
</g>
</svg>
