<svg xmlns="http://www.w3.org/2000/svg" width="181.53" height="83.89" viewBox="0 0 181.53 83.89"><defs><style>.a,.c{fill:#fff;}.b,.d{fill:none;}.b,.c,.d{stroke:#231f20;stroke-miterlimit:10;}.b,.c{stroke-width:2px;}.d{stroke-width:4px;}</style></defs><title>coin</title><path class="a" d="M1.35,38.33s12.81,27,92.71,26.74c0,0,65.5,1.09,85.68-26.74,0,0,1.65,6.29.66,17.6,0,0-8.41,28.31-93.58,27.81,0,0-74.72-.85-85.57-28.05Z" transform="translate(-0.26 -0.86)"/><path class="b" d="M1.35,34.42V53.08C1.35,70,41.52,83.75,91.07,83.75S180.79,70,180.79,53.08V32.53" transform="translate(-0.26 -0.86)"/><path class="b" d="M91.07,3.75" transform="translate(-0.26 -0.86)"/><ellipse class="c" cx="90.77" cy="32.61" rx="89.77" ry="31.61"/><line class="b" x1="4.19" y1="40.83" x2="4.19" y2="60.08"/><line class="b" x1="9.22" y1="46.33" x2="9.22" y2="65.14"/><line class="b" x1="14.64" y1="49.77" x2="14.64" y2="68.44"/><line class="b" x1="20.36" y1="52.55" x2="20.36" y2="71.47"/><line class="b" x1="26.21" y1="54.84" x2="26.21" y2="73.37"/><line class="b" x1="32.63" y1="56.9" x2="32.63" y2="75.1"/><line class="b" x1="39.32" y1="58.67" x2="39.32" y2="77.33"/><line class="b" x1="45.19" y1="59.97" x2="45.19" y2="78.76"/><line class="b" x1="51.43" y1="60.53" x2="51.43" y2="79.06"/><line class="b" x1="58.03" y1="62.01" x2="58.03" y2="80.74"/><line class="b" x1="64.67" y1="62.9" x2="64.67" y2="81.59"/><line class="b" x1="71.6" y1="62.9" x2="71.6" y2="82.15"/><line class="b" x1="79.07" y1="63.97" x2="79.07" y2="82.15"/><line class="b" x1="86.57" y1="64.23" x2="86.57" y2="82.89"/><line class="b" x1="93.8" y1="64.22" x2="93.8" y2="82.89"/><line class="b" x1="101.28" y1="63.97" x2="101.28" y2="82.15"/><line class="b" x1="108.27" y1="63.7" x2="108.27" y2="82.15"/><line class="b" x1="114.7" y1="62.9" x2="114.7" y2="81.59"/><line class="b" x1="121.18" y1="62.42" x2="121.18" y2="81.59"/><line class="b" x1="127.92" y1="61.49" x2="127.92" y2="80.2"/><line class="b" x1="134.56" y1="59.97" x2="134.56" y2="79.06"/><line class="b" x1="140.46" y1="59.11" x2="140.46" y2="77.86"/><line class="b" x1="145.93" y1="57.76" x2="145.93" y2="76.36"/><line class="b" x1="152.16" y1="55.93" x2="152.16" y2="74.66"/><line class="b" x1="157.46" y1="54.09" x2="157.46" y2="72.01"/><line class="b" x1="158.77" y1="72.25" x2="157.46" y2="72.25"/><line class="b" x1="163.02" y1="51.76" x2="163.02" y2="70.84"/><line class="b" x1="167.76" y1="48.93" x2="167.76" y2="67.6"/><line class="b" x1="172.01" y1="46.22" x2="172.01" y2="65.29"/><line class="b" x1="176.29" y1="42.6" x2="176.29" y2="61.49"/><path class="d" d="M87.28,52.43c7.24,3.25,15.45,4,23.21,3.46,6.35-.44,15.31-2,19.16-8.27,3.41-5.51.81-11-3.93-13.77C116,28.19,104,30.78,93.46,30.27c-7.58-.37-15.28-.45-22.86-.06-4.73.24-11.58,1.72-15.39-2.28-7.52-7.9,13.49-13,17.32-14,7.58-2,15.9-2.43,23.66-2.78" transform="translate(-0.26 -0.86)"/><line class="d" x1="62.49" y1="9.24" x2="129.91" y2="55.08"/></svg>